<svg xmlns="http://www.w3.org/2000/svg" width="64.124" height="130" viewBox="0 0 64.124 94.431"><path fill="#FFF" d="M29.95 94.431c-.391 0-.802-.027-1.305-.087-3.091.412-6.386-1.23-8.24-4.069L6.316 68.778c-2.613-3.975-1.854-9.11 1.695-11.446a7.188 7.188 0 0 1 3.917-1.156c2.385 0 4.743 1.14 6.427 3.043l-.04-25.669c-.007-3.623 1.168-6.883 3.223-8.944 1.382-1.386 3.054-2.118 4.835-2.12 4.462 0 8.084 4.712 8.089 10.504l-.009 10.299c1.717-.648 3.737-.717 5.227-.171a6.565 6.565 0 0 1 2.154 1.29c1.112-.855 2.61-1.314 4.404-1.314 1.91 0 3.67.929 5.044 2.12 1.058-1.039 2.556-2.025 4.552-2.029 4.545 0 8.24 3.869 8.245 8.625l.045 30.983a11.487 11.487 0 0 1-3.386 8.196 11.524 11.524 0 0 1-8.183 3.407l-22.575.035h-.03zm-1.332-4.106c.089 0 .178.006.266.018.459.062.787.089 1.066.089v2l.019-2 22.58-.036c2.021-.004 3.925-.797 5.358-2.233s2.222-3.341 2.217-5.362l-.045-30.986c-.003-2.554-1.903-4.63-4.236-4.63-.911.002-1.708.624-2.844 2.218a2.003 2.003 0 0 1-1.617.84h-.012a2 2 0 0 1-1.615-.82c-.985-1.349-2.461-2.328-3.509-2.328-2.188 0-2.404.935-2.521 1.437a2.002 2.002 0 0 1-1.948 1.548h-.03a2.003 2.003 0 0 1-1.931-1.606c-.038-.188-.288-1.148-1.515-1.598-.128-.047-.409-.125-.869-.125-1.199 0-2.976.589-2.984 1.853a2.013 2.013 0 0 1-1.799 1.997h-.001l-.003.001h-.005l-.003.001h-.01s-.002.002-.003.001h-.006s-.002-.001-.004.001h-.011l-.002.001h-.011l-.001.001h-.013l-.009.001h-.007a1.673 1.673 0 0 1-.246-.001h-.009l-.004-.001h-.006l-.007-.001h-.009c0-.005-.002-.005-.002-.005h-.007l-.003-.001h-.01l-.003-.001h-.007l-.003-.001h-.007l-.003-.001h-.007l-.002-.001h-.005l-.003-.001h-.003s-.001.001-.003-.001h-.008l-.002-.001h-.004a.004.004 0 0 1-.003-.001h-.006l-.003-.001h-.006l-.001-.001h-.005l-.004-.001h-.004a.004.004 0 0 1-.003-.001h-.004s0-.002-.003-.001h-.003l-.004-.001h-.004l-.002-.001h-.002l-.002-.001h-.005l-.002-.001h-.004l-.002-.001h-.004l-.002-.001h-.003c-.001 0-.001-.002-.004-.001h-.004l-.001-.001h-.004l-.003-.001h-.002l-.001-.001h-.004s.001-.001-.003-.001h-.003l-.002-.001h-.004l-.002-.001h-.003l-.002-.001h-.003l-.002-.001h-.004l-.002-.001h-.006l-.004-.001h-.002s0-.002-.003-.001h-.001l-.003-.001h-.003l-.002-.001h-.002l-.002-.001h-.003l-.002-.001h-.003l-.002-.001h-.003l-.002-.001h-.003l-.003-.001h-.001l-.001-.001h-.004l-.001-.001h-.003l-.002-.001h-.003l-.001-.001h-.002a.004.004 0 0 1-.003-.001h-.001l-.003-.001h-.003l-.001-.001h-.003l-.002-.001a.01.01 0 0 1-.003-.001h-.003l-.002-.001h-.001l-.002-.001h-.003l-.001-.001h-.003l-.002-.001h-.002l-.003-.001h-.001l-.002-.001h-.002s.001-.001-.003-.001h-.001l-.002-.001h-.003l-.001-.001h-.002l-.001-.001h-.003l-.002-.001h-.001l-.002-.001h.001c-.001 0-.002-.002-.003-.001h-.002l-.001-.001h-.003l-.002-.001h-.001l-.002-.001h-.001l-.004-.001h-.001l-.001-.001h-.002l-.002-.001h-.001l-.002-.001h-.001l-.003-.001h-.001l-.004-.001h-.001l-.001-.001h-.001l-.001-.001h-.002l-.002-.001h-.001l-.002-.001h-.001l-.002-.001h-.003l-.001-.001h-.002l-.003-.001h-.001l-.002-.001h-.001l-.002-.001h-.001l-.002-.001h-.001l-.002-.001h-.001l-.002-.001h-.001l-.003-.001-.003-.001-.003-.001-.003-.001h-.002v-.001h-.003a1.991 1.991 0 0 1-1.258-1.184s-.001.001-.001-.002l-.001-.001-.001-.003v-.001l-.001-.002v-.001l-.001-.002a1.98 1.98 0 0 1-.126-.7v-.005l.014-15.625c-.003-3.463-1.907-6.504-4.074-6.504-.718.001-1.393.318-2.017.944-1.292 1.296-2.061 3.581-2.056 6.113l.05 32.196a2.001 2.001 0 0 1-3.672 1.101l-2.835-4.315c-.947-1.45-2.446-2.349-3.915-2.349a3.205 3.205 0 0 0-1.745.506c-1.666 1.097-1.918 3.803-.538 5.901l14.093 21.502c1.046 1.602 2.938 2.555 4.51 2.272.117-.019.236-.029.355-.029z"><animateTransform attributeName="transform" dur="0.7s" type="translate" values="0 0 ; 0 -15; 0 0" repeatCount="2" begin=".1"/></path><path fill="#C6A471" d="M20.203 21.833c-.272 0-.549-.056-.81-.172L1.189 13.592a2.002 2.002 0 0 1-.733-3.1L8.509.73a1.96 1.96 0 0 1 1.715-.72 1.997 1.997 0 0 1 1.566 1.003l10.026 17.609a2 2 0 0 1-1.593 3.21h-.001l-.019.001z"><animateTransform attributeName="transform" dur="0.7s" type="translate" values="0 0 ; 0 -15; 0 0" repeatCount="2" begin=".1"/></path><path fill="#C6A471" d="M26.9 19.786a2.002 2.002 0 0 1-1.979-1.698L22.828 4.351a2.003 2.003 0 0 1 2.399-2.257L33.604 3.9a1.997 1.997 0 0 1 1.348 2.886l-6.283 11.931a2 2 0 0 1-1.769 1.069z"><animateTransform attributeName="transform" dur="0.7s" type="translate" values="0 0 ; 0 -15; 0 0" repeatCount="2" begin=".1"/></path></svg>