<svg xmlns="http://www.w3.org/2000/svg" width="104.75" height="53" viewBox="0 0 104.75 53"><path d="M25.632 28.773v8.309h-4.58V15.916h9.553v3.959h-4.973v5.07h4.646v3.828h-4.646zm12.235-12.857v21.166h-4.58V15.916h4.58zm15.538 21.166h-4.58V19.516a.663.663 0 0 0-.18-.459.575.575 0 0 0-.441-.195h-1.767a.57.57 0 0 0-.441.195.659.659 0 0 0-.181.459v17.566h-4.58V19.908c0-2.879 1.353-4.318 4.057-4.318h4.057c2.704 0 4.057 1.439 4.057 4.318v17.174zm9.258-8.406v-3.37h6.053v7.786c0 2.879-1.353 4.318-4.057 4.318h-4.122c-2.705 0-4.057-1.439-4.057-4.318V19.908c0-2.879 1.352-4.318 4.057-4.318h4.122c2.704 0 4.057 1.439 4.057 4.318v1.995h-4.352v-2.552a.662.662 0 0 0-.18-.458.576.576 0 0 0-.441-.196h-2.062c-.175 0-.321.065-.441.196s-.18.284-.18.458v14.264c0 .174.06.326.18.457s.267.197.441.197h2.062a.576.576 0 0 0 .441-.197.66.66 0 0 0 .18-.457v-4.939h-1.701zm21.035-8.768v13.184c0 2.879-1.353 4.318-4.057 4.318H75.29c-2.705 0-4.057-1.439-4.057-4.318V19.908c0-2.879 1.352-4.318 4.057-4.318h4.351c2.704 0 4.057 1.439 4.057 4.318zm-4.58 13.707V19.352a.662.662 0 0 0-.18-.458.576.576 0 0 0-.441-.196h-2.062c-.175 0-.321.065-.441.196s-.18.284-.18.458v14.264c0 .174.06.326.18.457s.267.197.441.197h2.062a.576.576 0 0 0 .441-.197.664.664 0 0 0 .18-.458z" fill="#C5A370"/><path fill="#C5A370" d="M0 0v53h104.75V0H0zm100.75 49.125H4V3.875h96.75v45.25z"/></svg>