<svg xmlns="http://www.w3.org/2000/svg" width="104.833" height="52.667" viewBox="0 0 104.833 52.667"><path d="M25.427 27.934v8.309h-4.58V15.076H30.4v3.959h-4.973v5.07h4.646v3.828h-4.646zm12.235-12.858v21.166h-4.58V15.076h4.58zM53.2 36.242h-4.58V18.676a.663.663 0 0 0-.18-.459.575.575 0 0 0-.441-.195h-1.767a.57.57 0 0 0-.441.195.659.659 0 0 0-.181.459v17.566h-4.58V19.068c0-2.879 1.353-4.318 4.057-4.318h4.057c2.704 0 4.057 1.439 4.057 4.318v17.174zm9.258-8.406v-3.37h6.053v7.786c0 2.879-1.353 4.318-4.057 4.318h-4.122c-2.705 0-4.057-1.439-4.057-4.318V19.068c0-2.879 1.352-4.318 4.057-4.318h4.122c2.704 0 4.057 1.439 4.057 4.318v1.995h-4.352v-2.552a.662.662 0 0 0-.18-.458.576.576 0 0 0-.441-.196h-2.062c-.175 0-.321.065-.441.196s-.18.284-.18.458v14.264c0 .174.06.326.18.457s.267.197.441.197h2.062a.576.576 0 0 0 .441-.197.66.66 0 0 0 .18-.457v-4.939h-1.701zm21.035-8.768v13.184c0 2.879-1.353 4.318-4.057 4.318h-4.351c-2.705 0-4.057-1.439-4.057-4.318V19.068c0-2.879 1.352-4.318 4.057-4.318h4.351c2.704 0 4.057 1.439 4.057 4.318zm-4.58 13.707V18.512a.662.662 0 0 0-.18-.458.576.576 0 0 0-.441-.196H76.23c-.175 0-.321.065-.441.196s-.18.284-.18.458v14.264c0 .174.06.326.18.457s.267.197.441.197h2.062a.576.576 0 0 0 .441-.197.662.662 0 0 0 .18-.458z" fill="#555655"/><path fill="#555655" d="M0 0v52.667h104.833V0H0zm100.833 48.833H4V4h96.833v44.833z"/></svg>